<?xml version="1.0" standalone="no"?>
<!DOCTYPE svg PUBLIC "-//W3C//DTD SVG 20010904//EN"
 "http://www.w3.org/TR/2001/REC-SVG-20010904/DTD/svg10.dtd">
<svg version="1.0" xmlns="http://www.w3.org/2000/svg"
 width="260.000000pt" height="260.000000pt" viewBox="0 0 260.000000 260.000000"
 preserveAspectRatio="xMidYMid meet">
<metadata>
Created by potrace 1.11, written by Peter Selinger 2001-2013
</metadata>
<g transform="translate(0.000000,260.000000) scale(0.100000,-0.100000)"
fill="#000000" stroke="none">
<path d="M1539 2381 l-71 -219 -56 -7 c-293 -37 -520 -235 -560 -490 -32 -200
42 -341 225 -430 l80 -39 -13 -36 c-7 -19 -41 -120 -74 -225 -34 -104 -66
-194 -70 -199 -10 -10 -80 30 -129 74 -19 17 -36 29 -38 27 -2 -2 -25 -71 -52
-153 l-49 -149 27 -23 c14 -12 53 -35 87 -52 l61 -29 -69 -208 c-37 -114 -68
-211 -68 -215 0 -5 76 -8 169 -8 l169 0 64 197 64 198 59 7 c70 9 149 32 222
65 228 102 366 330 351 580 -8 139 -84 241 -230 311 l-76 37 29 95 c17 52 33
102 36 110 3 8 7 20 8 25 6 23 75 227 80 235 7 11 77 -30 120 -71 l31 -29 46
140 46 140 -26 19 c-15 10 -51 30 -79 45 -29 14 -53 28 -53 31 0 2 5 16 11 32
8 22 79 239 133 411 l7 22 -170 0 -170 0 -72 -219z m-171 -523 c-13 -60 -107
-333 -116 -336 -16 -5 -70 53 -78 83 -23 90 24 187 116 243 65 38 84 41 78 10z
m130 -813 c37 -31 51 -69 48 -132 -4 -58 -24 -100 -73 -149 -30 -30 -131 -89
-140 -81 -4 5 122 387 129 387 3 0 20 -11 36 -25z"/>
</g>
</svg>
